<?xml version="1.0" encoding="UTF-8"?>
<svg id="Layer_2" data-name="Layer 2" xmlns="http://www.w3.org/2000/svg" width="96" height="96" xmlns:xlink="http://www.w3.org/1999/xlink" viewBox="0 0 96 96">
  <defs>
    <clipPath id="clippath">
      <rect width="96" height="96" fill="none"/>
    </clipPath>
  </defs>
  <g id="Layer_1-2" data-name="Layer 1">
    <g clip-path="url(#clippath)">
      <g>
        <path d="m48,72.115c-1.958,0-3.843-.539-5.604-1.601-6.525-2.332-10.901-8.521-10.901-15.434,0-.541.439-.98.98-.98s.98.439.98.98c0,6.117,3.893,11.59,9.688,13.62.066.023.13.054.189.09,2.947,1.813,6.389,1.813,9.335,0,.06-.037.123-.067.189-.09,5.795-2.029,9.689-7.503,9.689-13.62,0-.541.439-.98.98-.98s.98.439.98.98c0,6.913-4.376,13.102-10.901,15.434-1.761,1.063-3.645,1.601-5.603,1.601Z" fill="#1c4073"/>
        <path d="m48,63.701c-2.039,0-3.911-.758-4.884-1.978-.337-.423-.268-1.039.155-1.377.422-.336,1.04-.268,1.377.155.601.754,1.917,1.241,3.353,1.241s2.751-.487,3.353-1.241c.338-.421.955-.491,1.377-.154.423.338.492.954.154,1.377-.974,1.22-2.845,1.977-4.884,1.977Z" fill="#1c4073"/>
        <path d="m48,58.095c-1.078,0-2.043-.403-2.582-1.079-.337-.423-.267-1.039.156-1.377.423-.336,1.038-.267,1.377.156.105.132.483.341,1.049.341s.945-.209,1.049-.341c.339-.423.955-.491,1.377-.156.423.337.493.954.156,1.377-.539.676-1.504,1.079-2.582,1.079Z" fill="#1c4073"/>
        <path d="m55.632,63.288c-.029,0-.059-.001-.088-.004-.539-.048-.937-.525-.888-1.063.112-1.243-1.089-2.578-1.561-2.987-.408-.353-.454-.971-.101-1.38.353-.409.967-.458,1.379-.105.1.086,2.46,2.14,2.235,4.648-.046.509-.473.892-.975.892Z" fill="#1c4073"/>
        <path d="m40.368,63.288c-.502,0-.929-.383-.975-.892-.225-2.508,2.135-4.562,2.235-4.648.41-.353,1.03-.304,1.381.106.352.41.305,1.028-.105,1.38-.473.41-1.672,1.744-1.56,2.987.048.539-.349,1.015-.888,1.063-.03.002-.059.004-.088.004Z" fill="#1c4073"/>
        <path d="m63.287,59.09c-.039,0-.065,0-.075-.001-.54-.021-.962-.476-.94-1.017.021-.538.438-.978,1.009-.941.103-.005,2.262.014,3.171-2.278.536-1.389.822-2.566.871-3.589.064-1.322-.484-2.627-1.502-3.582l-.369-.343c-1.549-1.429-3.476-3.208-4.107-6.663-.497-2.725-.927-5.078-1.906-6.642-.287-.459-.148-1.063.31-1.35.459-.287,1.063-.148,1.35.31,1.179,1.883,1.662,4.529,2.173,7.33.513,2.812,2.104,4.28,3.508,5.576l.38.353c1.439,1.347,2.212,3.209,2.12,5.106-.06,1.235-.388,2.612-1.004,4.208-1.339,3.374-4.451,3.523-4.99,3.523Z" fill="#1c4073"/>
        <path d="m32.713,59.09c-.539,0-3.65-.149-4.986-3.514-.619-1.606-.948-2.982-1.007-4.217-.091-1.897.682-3.759,2.12-5.107l.378-.351c.271-.25.552-.51.835-.788.386-.378,1.007-.374,1.386.011.379.386.375,1.006-.011,1.386-.298.293-.595.567-.88.831l-.368.341c-1.019.955-1.566,2.26-1.502,3.582.049,1.023.335,2.2.875,3.598.909,2.292,3.071,2.268,3.168,2.269.532.018.989.412,1.005.949s-.399.988-.937,1.008c-.01,0-.036.001-.076.001Z" fill="#1c4073"/>
        <path d="m28.908,42.903c-.153,0-.305,0-.459-.004-.541-.01-.971-.457-.962-.997.01-.535.447-.962.979-.962h.018c10.084.208,15.49-6.376,18.252-11.912.757-1.517,2.205-2.561,3.872-2.795,1.67-.236,3.282.346,4.423,1.592l2.187,2.387c.365.399.338,1.018-.061,1.384-.399.366-1.018.338-1.384-.061l-2.187-2.387c-.698-.762-1.684-1.118-2.706-.975-1.044.146-1.916.777-2.391,1.73-2.972,5.957-8.775,13.001-19.582,13.001Z" fill="#1c4073"/>
        <path d="m56.496,31.852c-.195,0-.391-.058-.562-.178-.443-.311-.549-.922-.238-1.365,1.393-1.981,1.392-4.042,1.392-4.063-.004-.541.43-.983.971-.988h.008c.537,0,.975.433.98.971,0,.11.002,2.717-1.749,5.206-.191.271-.494.416-.802.416Z" fill="#1c4073"/>
        <path d="m65.203,64.301c-.398,0-.773-.245-.919-.641-.187-.507.073-1.071.581-1.258,3.437-1.266,6.48-4.208,8.139-7.869,1.566-3.455,1.749-7.126.516-10.336-.34-.884-.91-2.007-1.695-3.338-1.094-1.855-1.976-3.877-2.625-6.011-1.365-4.495-4.582-11.904-10.739-11.067-.47.066-.915-.215-1.063-.663-.088-.252-2.369-6.335-14.505-3.677-11.377,3.177-15.578,11.814-17.064,16.679-.481,1.571-1.15,3.221-2.107,5.193-.42.866-.838,1.836-1.24,2.884-1.234,3.21-1.05,6.882.516,10.337,1.659,3.661,4.702,6.603,8.139,7.868.507.187.768.75.581,1.258s-.75.767-1.258.581c-3.918-1.444-7.375-4.77-9.246-8.898-1.784-3.937-1.984-8.145-.561-11.849.422-1.099.862-2.121,1.307-3.037.911-1.877,1.545-3.437,1.995-4.909,1.291-4.224,5.675-14.436,18.464-18.006,11.603-2.544,15.458,2.296,16.506,4.228,7.123-.425,10.653,7.585,12.15,12.511.602,1.985,1.423,3.863,2.437,5.584.84,1.423,1.458,2.645,1.837,3.63,1.423,3.703,1.224,7.911-.561,11.848-1.871,4.128-5.327,7.456-9.246,8.899-.111.041-.226.061-.339.061Z" fill="#1c4073"/>
        <path d="m48,82.912c-7.793,0-14.134-4.499-14.134-10.029,0-.541.439-.98.98-.98s.98.439.98.98c0,4.45,5.461,8.07,12.175,8.07s12.175-3.62,12.175-8.07c0-.541.439-.98.98-.98s.98.439.98.98c0,5.53-6.341,10.029-14.134,10.029Z" fill="#1c4073"/>
        <path d="m15.269,96c-.052,0-.103-.004-.156-.012-.534-.085-.898-.587-.813-1.122l1.412-8.854c.788-4.941,4.213-9.034,8.938-10.682l10.074-3.512c1.15-.401,2.042-1.338,2.386-2.508l.618-2.105c.153-.519.695-.817,1.216-.664.519.153.816.697.664,1.216l-.618,2.105c-.521,1.775-1.875,3.197-3.621,3.806l-10.074,3.512c-4.043,1.41-6.973,4.912-7.648,9.14l-1.412,8.855c-.077.482-.493.825-.966.825Z" fill="#1c4073"/>
        <path d="m80.731,96c-.473,0-.889-.343-.966-.825l-1.412-8.855c-.675-4.228-3.606-7.73-7.648-9.14l-10.074-3.512c-1.746-.609-3.099-2.031-3.621-3.806l-.618-2.105c-.153-.519.145-1.063.664-1.216.52-.154,1.064.145,1.216.664l.618,2.105c.343,1.169,1.235,2.107,2.386,2.508l10.074,3.512c4.725,1.648,8.15,5.74,8.938,10.681l1.412,8.855c.086.534-.279,1.037-.813,1.122-.053.009-.104.012-.156.012Z" fill="#1c4073"/>
        <path d="m40.246,96c-.541,0-.98-.439-.98-.98,0-9.394-.85-15.013-.859-15.068-.082-.535.284-1.035.818-1.118.534-.084,1.035.283,1.118.818.036.232.882,5.807.882,15.368,0,.541-.439.98-.98.98Z" fill="#1c4073"/>
        <path d="m55.754,96c-.541,0-.98-.439-.98-.98,0-9.561.846-15.135.882-15.368.083-.535.584-.9,1.118-.818.534.083.901.583.818,1.118-.009.055-.859,5.675-.859,15.068,0,.541-.439.98-.98.98Z" fill="#1c4073"/>
        <path d="m93.538,60.743c-.081,0-.163-.01-.245-.031-.524-.135-.839-.669-.704-1.193.963-3.742,1.452-7.618,1.452-11.519C94.041,22.613,73.387,1.959,48,1.959S1.959,22.613,1.959,48c0,3.901.489,7.776,1.452,11.518.135.524-.18,1.058-.704,1.193-.525.134-1.058-.18-1.193-.704-1.005-3.902-1.514-7.941-1.514-12.007C0,21.533,21.533,0,48,0s48,21.533,48,48c0,4.066-.509,8.106-1.514,12.008-.114.442-.512.735-.948.735Z" fill="#1c4073"/>
        <g>
          <path d="m50.318,50.203c-.288,0-.573-.126-.766-.369-.202-.254-.766-.527-1.526-.527s-1.324.273-1.526.527c-.337.424-.954.492-1.377.155s-.492-.954-.155-1.377c.631-.792,1.775-1.265,3.058-1.265s2.426.473,3.058,1.265c.337.423.268,1.039-.155,1.377-.18.144-.396.214-.61.214Z" fill="#1c4073"/>
          <path d="m40.61,55.214c-3.337,0-6.053-2.715-6.053-6.052s2.715-6.052,6.053-6.052,6.052,2.715,6.052,6.052-2.715,6.052-6.052,6.052Zm0-10.145c-2.257,0-4.093,1.836-4.093,4.093s1.836,4.093,4.093,4.093,4.093-1.836,4.093-4.093-1.836-4.093-4.093-4.093Z" fill="#1c4073"/>
          <path d="m55.39,55.214c-3.337,0-6.052-2.715-6.052-6.052s2.715-6.052,6.052-6.052,6.052,2.715,6.052,6.052-2.715,6.052-6.052,6.052Zm0-10.145c-2.257,0-4.093,1.836-4.093,4.093s1.836,4.093,4.093,4.093,4.093-1.836,4.093-4.093-1.836-4.093-4.093-4.093Z" fill="#1c4073"/>
          <path d="m62.546,49.924h-2.083c-.541,0-.98-.439-.98-.98s.439-.98.98-.98h2.083c.541,0,.98.439.98.98s-.439.98-.98.98Z" fill="#1c4073"/>
          <path d="m35.515,49.924h-2.083c-.541,0-.98-.439-.98-.98s.439-.98.98-.98h2.083c.541,0,.98.439.98.98s-.439.98-.98.98Z" fill="#1c4073"/>
          <path d="m41.989,50.118c-.287,0-.573-.126-.766-.368-.048-.054-.267-.171-.613-.171s-.567.117-.614.171c-.352.399-.972.463-1.379.122-.408-.342-.484-.928-.152-1.344.453-.569,1.255-.908,2.145-.908s1.692.34,2.145.908c.337.423.267,1.039-.156,1.377-.18.143-.396.213-.61.213Z" fill="#1c4073"/>
          <path d="m56.77,50.118c-.287,0-.573-.126-.766-.368-.048-.054-.267-.171-.613-.171s-.566.117-.613.171c-.351.399-.972.463-1.379.122-.408-.342-.484-.928-.152-1.344.453-.569,1.255-.908,2.145-.908s1.692.34,2.145.908c.337.423.267,1.039-.156,1.377-.18.143-.396.213-.61.213Z" fill="#1c4073"/>
        </g>
      </g>
    </g>
  </g>
</svg>